<svg id="Layer_1" data-name="Layer 1" xmlns="http://www.w3.org/2000/svg" viewBox="0 0 461.37 629.01"><title>hand</title><path d="M434.48,268.09s6.12-26.9,49.15-26.9,43,74.11,43,74.11v154.2s6,151.79-225.92,151.79S85.58,426.47,85.58,426.47V272.28s0-35.56,48.41-35.56h43" transform="translate(-75.31 -2.29)" fill="none" stroke="#000" stroke-width="20"/><path d="M346.78,232.84s9.54-19.13,47.2-19.13,40.66,26.28,40.66,66.93v68.75" transform="translate(-75.31 -2.29)" fill="none" stroke="#000" stroke-linecap="round" stroke-width="20"/><path d="M266.68,197s80.1-29.9,80.1,29.28v96.23" transform="translate(-75.31 -2.29)" fill="none" stroke="#000" stroke-linecap="round" stroke-width="20"/><path d="M177,425.88V51.14s-1.19-38.85,45.43-38.85,44.22,38.85,44.22,38.85V289" transform="translate(-75.31 -2.29)" fill="none" stroke="#000" stroke-linecap="round" stroke-width="20"/></svg>