<svg id="Layer_1" data-name="Layer 1" xmlns="http://www.w3.org/2000/svg" viewBox="0 0 461.4 629.01"><title>hand-down</title><path d="M478,406.88H435v-20h43c36.55,0,38.33-22.86,38.41-25.65V206.69l0-.43c0.06-.71,5.46-73.39-43.43-126.49-35.12-38.14-89.54-57.48-161.77-57.48-82.43,0-142.88,19.28-179.68,57.31-37.29,38.53-36.26,83.67-36.24,84.12V318.29a141.37,141.37,0,0,0,5.08,34.6c5.76,19.58,15.17,29.51,28,29.51,34.09,0,39.35-18.92,39.4-19.12l19.5,4.44c-0.32,1.42-8.47,34.68-58.9,34.68-15.7,0-36.64-7.68-47.26-44.27a159.94,159.94,0,0,1-5.78-39.84v-154c-0.12-4.34-.58-54.41,41.51-98.18C157.52,23.75,222.93,2.29,311.25,2.29c78.17,0,137.61,21.57,176.66,64.13,53.25,58,49,133.8,48.5,141.1v153.8a44.57,44.57,0,0,1-7.78,23.41C521.75,394.83,507.38,406.88,478,406.88Z" transform="translate(-75.31 -2.29)"/><path d="M218,429.88c-21.72,0-36-7.84-43.51-24-6.6-14.1-7.15-33.09-7.15-53V284.21a10,10,0,0,1,20,0V353c0,46.29,5.73,56.93,30.66,56.93,30.11,0,38.05-13.27,38.38-13.83-0.09.15-.12,0.24-0.12,0.24l17.9,8.93C272.9,407.74,260.63,429.88,218,429.88Z" transform="translate(-75.31 -2.29)"/><path d="M305.22,454.21c-11.45,0-23.18-2.16-32.55-8.66-8-5.53-17.46-16.65-17.46-38.22V311.1a10,10,0,0,1,20,0v96.23c0,10.52,2.9,17.65,8.86,21.79,15,10.44,47.54,1.93,57.74-1.87a10,10,0,0,1,7,18.74C345.58,447.19,325.87,454.21,305.22,454.21Z" transform="translate(-75.31 -2.29)"/><path d="M389.54,631.3c-18.08,0-32.12-5.19-41.74-15.42-12.57-13.37-12.58-30.64-12.48-33.62V344.59a10,10,0,1,1,20,0V582.76l0,0.31s-0.41,11.3,7.21,19.26c5.7,6,14.79,9,27,9s21.57-3.06,27.53-9.1c8-8.07,7.91-19.42,7.91-19.53v-375a10,10,0,0,1,20,0V582.39c0,2.38-.25,20-13.4,33.59C421.71,626.15,407.57,631.3,389.54,631.3Z" transform="translate(-75.31 -2.29)"/></svg>