<svg id="Layer_1" data-name="Layer 1" xmlns="http://www.w3.org/2000/svg" viewBox="0 0 495.32 440.54"><title>headphone</title><path d="M76.71,347.8v50.37a29.69,29.69,0,1,0,59.39,0V347.8A29.69,29.69,0,0,0,76.71,347.8Z" transform="translate(-58.35 -99.22)" fill="none"/><circle cx="217.15" cy="417.52" r="4.67" fill="none"/><path d="M505.59,318.12a29.72,29.72,0,0,0-29.68,29.69v50.37a29.69,29.69,0,1,0,59.39,0V347.8A29.73,29.73,0,0,0,505.59,318.12Z" transform="translate(-58.35 -99.22)" fill="none"/><path d="M514.56,300.63c-4.6-111.83-97-201.4-209.89-201.4-113.15,0-205.65,89.9-209.93,202A48.09,48.09,0,0,0,58.35,347.8v50.37a48.07,48.07,0,0,0,40.79,47.44c9,31.05,37.19,80.31,92.2,80.31H254.4a23,23,0,1,0,0-18.36H191.34c-46.46,0-66.43-43.07-73.16-62.86a48.09,48.09,0,0,0,36.27-46.54V347.8a48.08,48.08,0,0,0-41.33-47.52C117.88,198.74,202,117.58,304.67,117.58s187,81.37,191.53,183.1a48.11,48.11,0,0,0-38.64,47.11v50.37a48.05,48.05,0,1,0,96.11,0V347.8A48.13,48.13,0,0,0,514.56,300.63ZM275.5,512.08a4.67,4.67,0,1,1-4.68,4.68A4.68,4.68,0,0,1,275.5,512.08ZM136.09,347.8v50.37a29.69,29.69,0,1,1-59.39,0V347.8A29.69,29.69,0,0,1,136.09,347.8ZM535.3,398.17a29.69,29.69,0,1,1-59.39,0V347.8a29.69,29.69,0,0,1,59.39,0v50.37h0Z" transform="translate(-58.35 -99.22)"/></svg>