<svg id="Layer_1" data-name="Layer 1" xmlns="http://www.w3.org/2000/svg" viewBox="0 0 368.5 430.05"><title>light-bulb</title><path d="M216.69,106.5c-3.1.51-5,4.65-3.45,7.4L231.14,145a4.91,4.91,0,1,0,8.43-5L221.5,108.9a5.18,5.18,0,0,0-4.81-2.41h0Zm177.08,0a5.12,5.12,0,0,0-3.45,2.41L372.43,140a5.05,5.05,0,0,0,1.55,7.06,5.13,5.13,0,0,0,6.88-2.06l18.07-31.14c1.72-3.1-1.2-7.74-4.82-7.4h-0.34ZM306,144c-64.36,0-116.68,53-116.68,118,0,38.37,11.19,57.82,21.51,74.85s19.79,31.66,19.79,65.21v0.34a7.58,7.58,0,0,0,.17.86,3.75,3.75,0,0,0,.17.69L249,498.28c1.55,8.08,9.46,13.08,17.89,13.08h1.55v2.58c0,9.81,6.71,18.58,16.18,18.58h42.5c9.47,0,16.35-8.78,16.35-18.58v-2.58h1.38c8.43,0,16.35-5,18.07-13.08L381,403.82l0.17-.51h0a3,3,0,0,0,0-1.72V400.9c0.34-32.52,9.81-47.14,20-64,10.32-17,21.33-36.48,21.33-74.85,0-65-52.13-118-116.5-118h0Zm0,9.8c59,0,106.87,48.52,106.87,108.23,0,36.65-9.64,52.65-20,69.69-9.82,16.18-20,33.72-21,65.72H240.09c-1-32-11.19-49.55-21-65.72-10.32-17-20-33-20-69.69,0-59.71,47.85-108.23,106.87-108.23h0ZM151.81,171.37c-4.13.51-5.34,7.23-1.72,9.12l31.15,18.07a4.93,4.93,0,1,0,4.82-8.6l-31.14-17.89a4.71,4.71,0,0,0-2.75-.69h-0.35Zm307.35,0a4.86,4.86,0,0,0-2.23.69l-31,17.89a5.25,5.25,0,0,0-1.9,6.71,5.19,5.19,0,0,0,6.71,1.89l31.15-18.07a5,5,0,0,0,2.23-5.68,5.17,5.17,0,0,0-5-3.44h0ZM128.4,260a4.82,4.82,0,1,0,.52,9.63h35.8a4.81,4.81,0,0,0,4.82-4.82,4.92,4.92,0,0,0-4.82-4.82H128.4Zm318.37,0a5.21,5.21,0,0,0-4.65,5.16,5.07,5.07,0,0,0,5.17,4.47h36a5,5,0,0,0,5-4.82,5.08,5.08,0,0,0-5-4.82H446.77ZM241.47,407.26H370.71l-17.38,89c-0.35,1.9-4.13,5.34-8.43,5.34h-78c-4.13,0-7.91-3.45-8.26-5.34l-4.3-22.36h63.16a4.9,4.9,0,0,0,0-9.8H252.32l-5.17-27h83.64a4.82,4.82,0,0,0,0-9.63H245.43l-4-20.14h0Zm36.65,104.1h55.58v2.58c0,5.5-3.44,8.95-6.54,8.95h-42.5c-3.1,0-6.54-3.45-6.54-8.95v-2.58h0Z" transform="translate(-121.75 -104.48)"/><path d="M327.16,534.53h-42.5c-10.19,0-18.18-9-18.18-20.58v-0.59c-9.68-.19-17.8-6.31-19.41-14.7L229,404.44a3.11,3.11,0,0,1-.21-0.88,3.89,3.89,0,0,1-.18-1.11V402.1c0-32.05-8.64-46.27-18.64-62.75l-0.87-1.43c-9.71-16-21.8-36-21.8-75.89,0-66.19,53.24-120,118.68-120a116.94,116.94,0,0,1,83.82,35.22A120,120,0,0,1,424.5,262c0,37.18-9.79,56.37-21.62,75.89l-1,1.62C392,355.88,383.53,370,383.2,400.92v0.4a5.13,5.13,0,0,1-.06,2.46l-0.17.55-18,94.34c-1.8,8.49-9.73,14.45-19.41,14.7v0.59C345.52,525.29,337.28,534.53,327.16,534.53ZM233,403.71L251,497.91c1.27,6.64,8,11.46,15.93,11.46h3.55v4.58c0,8.15,5.3,16.58,14.18,16.58h42.5c7.91,0,14.35-7.44,14.35-16.58v-4.58h3.38c8.05,0,14.68-4.73,16.11-11.49l18.09-94.56,0.18-.55a1,1,0,0,0,0-.57l-0.09-.3v-1c0.34-32,9.54-47.28,19.27-63.41l1-1.62c9.38-15.48,21-34.73,21-73.82A116,116,0,0,0,387,180a113,113,0,0,0-81-34c-63.23,0-114.68,52.05-114.68,116,0,38.79,11.77,58.21,21.22,73.82l0.86,1.42c9.88,16.28,19.22,31.65,19.22,64.82v0.26l0,0.09a3.21,3.21,0,0,1,.13.64A2.54,2.54,0,0,1,233,403.71Zm-0.33-1.39h0Zm94.55,122.57h-42.5c-4.11,0-8.54-4.19-8.54-10.95v-2.58h2v-2h57.58v4.58C335.71,520.71,331.27,524.89,327.17,524.89Zm-47-11.53v0.58c0,4.47,2.68,6.95,4.54,6.95h42.5c1.85,0,4.54-2.47,4.54-6.95v-0.58H280.13Zm64.76-9.81h-78c-4.82,0-9.65-3.83-10.23-7L252,471.85h65.58a3.1,3.1,0,0,0,2.82-3,3.05,3.05,0,0,0-2.82-2.82H250.66l-5.93-31h86.05a2.82,2.82,0,1,0,0-5.63h-87L239,405.26h134.1L355.29,496.6C354.78,499.38,350.18,503.55,344.89,503.55Zm-88.1-27.7,3.84,20c0.22,0.93,3.06,3.71,6.3,3.71h78c3.35,0,6.25-2.78,6.47-3.7l16.92-86.59H243.9l3.17,16.14h83.71a7.09,7.09,0,0,1,6.82,6.82,7,7,0,0,1-6.82,6.82H249.57l4.4,23h63.56a7,7,0,0,1,6.82,6.82,7.08,7.08,0,0,1-6.82,7H256.79Zm117-76.4H238.15l-0.06-1.94c-1-32.34-11.49-49.56-20.71-64.75C207,315.58,197.13,299.34,197.13,262c0-60.78,48.85-110.23,108.87-110.23S414.87,201.26,414.87,262c0,37.3-9.84,53.54-20.25,70.72C385.4,348,375,365.17,373.91,397.51Zm-131.83-4H370c1.44-32.18,12.38-50.21,21.21-64.76,10.12-16.7,19.67-32.47,19.67-68.65,0-58.57-47-106.23-104.87-106.23S201.14,203.47,201.13,262c0,36.18,9.56,52,19.67,68.65C229.63,345.24,240.57,363.28,242,395.45ZM447,271.62a7,7,0,0,1-6.88-6.34v-0.14a7.19,7.19,0,0,1,6.51-7.15h36.62a7.08,7.08,0,0,1,7,6.82,6.89,6.89,0,0,1-2.24,5,6.62,6.62,0,0,1-4.8,1.84H447Zm-2.88-6.56a3.1,3.1,0,0,0,3,2.55h36.23a2.63,2.63,0,0,0,1.88-.76,2.93,2.93,0,0,0,1-2.06,3.1,3.1,0,0,0-3-2.82H446.85A3.22,3.22,0,0,0,444.13,265.06Zm-315.49,6.56a6.82,6.82,0,0,1-.37-13.64h36.45a6.82,6.82,0,0,1,4.58,11.87,6.29,6.29,0,0,1-4.64,1.76h-36ZM128.48,262a2.82,2.82,0,1,0,.31,5.64h36.06a2.31,2.31,0,0,0,1.72-.68,3,3,0,0,0,1-2.14,2.93,2.93,0,0,0-2.82-2.82H128.48Zm55-60.89a6.64,6.64,0,0,1-3.16-.78l-31.2-18.1c-2.36-1.23-3.57-4.05-3-7.14a6.59,6.59,0,0,1,5.49-5.69l0.6,0a6.63,6.63,0,0,1,3.84,1l31.06,17.85a7.28,7.28,0,0,1,2.66,9.4l-0.06.1A7.34,7.34,0,0,1,183.46,201.09ZM152,173.37a2.81,2.81,0,0,0-1.95,2.42,2.71,2.71,0,0,0,1,2.92l31.23,18.11a2.93,2.93,0,1,0,2.77-5.17l-31.29-18a3,3,0,0,0-1.56-.29H152Zm276.55,27.71a7.08,7.08,0,0,1-6.22-3.47,7.28,7.28,0,0,1,2.61-9.37l31.13-18a6.75,6.75,0,0,1,3-.9,7.2,7.2,0,0,1,7,4.8,7,7,0,0,1-3.18,8.07l-31.1,18A6.86,6.86,0,0,1,428.51,201.08Zm29.36-27.27L427,191.68a2.93,2.93,0,1,0,2.87,5.11l31.09-18a3,3,0,0,0,1.34-3.31,3.17,3.17,0,0,0-2.93-2.08h-0.17A3,3,0,0,0,457.87,173.81ZM235.62,149.72a7.42,7.42,0,0,1-2.35-.39,6.52,6.52,0,0,1-3.92-3.39l-17.84-31a7,7,0,0,1,0-6.48,6.81,6.81,0,0,1,4.9-3.89l0.14,0a7.18,7.18,0,0,1,6.75,3.43l18,31a7,7,0,0,1,1,5.43A6.66,6.66,0,0,1,235.62,149.72ZM217,108.48a2.87,2.87,0,0,0-1.88,1.66,3.08,3.08,0,0,0-.08,2.77l18,31.33a2.51,2.51,0,0,0,1.56,1.3,3.1,3.1,0,0,0,2.49-.18,2.8,2.8,0,0,0,1.29-1.84,3,3,0,0,0-.39-2.34l-0.08-.13-18.07-31.14A3.24,3.24,0,0,0,217,108.48Zm159.32,41.24a6.37,6.37,0,0,1-3.34-.91,6.77,6.77,0,0,1-3.15-4.39,7,7,0,0,1,.95-5.43l17.86-31.07a7.13,7.13,0,0,1,4.75-3.37l0.43,0h0.28a7.28,7.28,0,0,1,6.62,10.37L382.62,146a7,7,0,0,1-4.33,3.44A7.34,7.34,0,0,1,376.27,149.72ZM394,108.5a3.07,3.07,0,0,0-1.93,1.4l-18,31.28a3,3,0,0,0-.39,2.34,2.68,2.68,0,0,0,3.51,2.06,3,3,0,0,0,1.88-1.44l0.06-.11L397.2,112.9a3,3,0,0,0-.38-2.93,2.89,2.89,0,0,0-2.52-1.47H394Z" transform="translate(-121.75 -104.48)"/></svg>